<svg xmlns="http://www.w3.org/2000/svg" width="41" height="40" viewBox="0 0 41 40" fill="none">
  <path fill-rule="evenodd" clip-rule="evenodd" d="M6.5235 34.225C8.96683 36.6667 12.8935 36.6667 20.7502 36.6667C28.6068 36.6667 32.5352 36.6667 34.9752 34.225C37.4168 31.7867 37.4168 27.8567 37.4168 20C37.4168 12.1433 37.4168 8.215 34.9752 5.77334C32.5368 3.33334 28.6068 3.33334 20.7502 3.33334C12.8935 3.33334 8.96516 3.33334 6.5235 5.77334C4.0835 8.21667 4.0835 12.1433 4.0835 20C4.0835 27.8567 4.0835 31.785 6.5235 34.225ZM16.5835 14.5833C15.5122 14.5833 14.4649 14.901 13.5742 15.4962C12.6834 16.0914 11.9891 16.9374 11.5791 17.9271C11.1692 18.9169 11.0619 20.006 11.2709 21.0567C11.4799 22.1075 11.9958 23.0726 12.7533 23.8302C13.5109 24.5877 14.476 25.1036 15.5268 25.3126C16.5775 25.5216 17.6666 25.4143 18.6564 25.0043C19.6461 24.5944 20.4921 23.9001 21.0873 23.0093C21.6825 22.1186 22.0002 21.0713 22.0002 20C22.0002 19.6685 22.1319 19.3505 22.3663 19.1161C22.6007 18.8817 22.9186 18.75 23.2502 18.75C23.5817 18.75 23.8996 18.8817 24.134 19.1161C24.3685 19.3505 24.5002 19.6685 24.5002 20C24.5002 21.5658 24.0359 23.0964 23.166 24.3983C22.2961 25.7002 21.0597 26.7149 19.6131 27.314C18.1665 27.9132 16.5747 28.07 15.039 27.7646C13.5033 27.4591 12.0927 26.7051 10.9856 25.5979C9.8784 24.4908 9.12441 23.0801 8.81895 21.5445C8.51348 20.0088 8.67026 18.417 9.26945 16.9704C9.86864 15.5238 10.8833 14.2874 12.1852 13.4175C13.4871 12.5476 15.0177 12.0833 16.5835 12.0833C16.915 12.0833 17.233 12.215 17.4674 12.4495C17.7018 12.6839 17.8335 13.0018 17.8335 13.3333C17.8335 13.6649 17.7018 13.9828 17.4674 14.2172C17.233 14.4516 16.915 14.5833 16.5835 14.5833ZM30.3335 20C30.3335 21.4366 29.7628 22.8143 28.747 23.8302C27.7312 24.846 26.3534 25.4167 24.9168 25.4167C24.5853 25.4167 24.2674 25.5484 24.0329 25.7828C23.7985 26.0172 23.6668 26.3351 23.6668 26.6667C23.6668 26.9982 23.7985 27.3161 24.0329 27.5506C24.2674 27.785 24.5853 27.9167 24.9168 27.9167C26.4826 27.9167 28.0132 27.4524 29.3151 26.5825C30.617 25.7126 31.6317 24.4762 32.2309 23.0296C32.8301 21.583 32.9868 19.9912 32.6814 18.4555C32.3759 16.9199 31.6219 15.5092 30.5148 14.4021C29.4076 13.2949 27.997 12.5409 26.4613 12.2355C24.9256 11.93 23.3338 12.0868 21.8873 12.686C20.4407 13.2851 19.2043 14.2998 18.3344 15.6017C17.4645 16.9036 17.0002 18.4342 17.0002 20C17.0002 20.3315 17.1319 20.6495 17.3663 20.8839C17.6007 21.1183 17.9186 21.25 18.2502 21.25C18.5817 21.25 18.8996 21.1183 19.134 20.8839C19.3685 20.6495 19.5002 20.3315 19.5002 20C19.5002 18.5634 20.0708 17.1857 21.0867 16.1698C22.1025 15.154 23.4802 14.5833 24.9168 14.5833C26.3534 14.5833 27.7312 15.154 28.747 16.1698C29.7628 17.1857 30.3335 18.5634 30.3335 20Z" fill="#633CFF"/>
</svg>